{
  "accessors": [
    {
      "bufferView": 2,
      "componentType": 5126,
      "count": 9198,
      "max": [
        0.7147759795188904,
        0.7158312201499939,
        0.573110818862915
      ],
      "min": [
        -0.6868919134140015,
        -0.7840310335159302,
        -0.7567328810691833
      ],
      "type": "VEC3"
    },
    {
      "bufferView": 2,
      "byteOffset": 110376,
      "componentType": 5126,
      "count": 9198,
      "max": [
        0.9987587332725525,
        0.9993769526481628,
        0.9997481107711792
      ],
      "min": [
        -0.999151885509491,
        -0.9992665648460388,
        -0.999884307384491
      ],
      "type": "VEC3"
    },
    {
      "bufferView": 1,
      "componentType": 5126,
      "count": 9198,
      "max": [
        0.994671642780304,
        0.9949699640274048
      ],
      "min": [
        0.005030046217143536,
        0.005030007567256689
      ],
      "type": "VEC2"
    },
    {
      "bufferView": 0,
      "componentType": 5125,
      "count": 37044,
      "type": "SCALAR"
    },
    {
      "bufferView": 2,
      "byteOffset": 220752,
      "componentType": 5126,
      "count": 2204,
      "max": [
        0.7481894493103027,
        0.7125248312950134,
        0.8327597379684448
      ],
      "min": [
        -0.7481894493103027,
        -0.7125248312950134,
        -0.8327597379684448
      ],
      "type": "VEC3"
    },
    {
      "bufferView": 2,
      "byteOffset": 247200,
      "componentType": 5126,
      "count": 2204,
      "max": [
        1.0,
        1.0,
        1.0
      ],
      "min": [
        -1.0,
        -1.0,
        -1.0
      ],
      "type": "VEC3"
    },
    {
      "bufferView": 1,
      "byteOffset": 73584,
      "componentType": 5126,
      "count": 2204,
      "max": [
        0.8684858679771423,
        0.8704065680503845
      ],
      "min": [
        0.005030040629208088,
        0.00503001781180501
      ],
      "type": "VEC2"
    },
    {
      "bufferView": 0,
      "byteOffset": 148176,
      "componentType": 5125,
      "count": 5760,
      "type": "SCALAR"
    }
  ],
  "asset": {
    "extras": {
      "author": "Bim44 (https://sketchfab.com/Bim44)",
      "license": "CC-BY-4.0 (http://creativecommons.org/licenses/by/4.0/)",
      "source": "https://sketchfab.com/3d-models/sci-fi-energy-orb-eaaf2a000a5a4b8a9219a1de1c900e61",
      "title": "Sci-Fi Energy Orb"
    },
    "generator": "Sketchfab-15.37.0",
    "version": "2.0"
  },
  "bufferViews": [
    {
      "buffer": 0,
      "byteLength": 171216,
      "name": "floatBufferViews",
      "target": 34963
    },
    {
      "buffer": 0,
      "byteLength": 91216,
      "byteOffset": 171216,
      "byteStride": 8,
      "name": "floatBufferViews",
      "target": 34962
    },
    {
      "buffer": 0,
      "byteLength": 273648,
      "byteOffset": 262432,
      "byteStride": 12,
      "name": "floatBufferViews",
      "target": 34962
    }
  ],
  "buffers": [
    {
      "byteLength": 536080,
      "uri": "scene.bin"
    }
  ],
  "extensionsUsed": [
    "KHR_materials_emissive_strength",
    "KHR_materials_specular"
  ],
  "materials": [
    {
      "alphaMode": "BLEND",
      "doubleSided": true,
      "emissiveFactor": [
        0.061168677160403105,
        0.030009104704765407,
        0.011518619167292882
      ],
      "extensions": {
        "KHR_materials_emissive_strength": {
          "emissiveStrength": 10.0
        },
        "KHR_materials_specular": {
          "specularColorFactor": [
            1.0,
            1.0,
            1.0
          ],
          "specularFactor": 1.0
        }
      },
      "name": "material",
      "pbrMetallicRoughness": {
        "baseColorFactor": [
          0.379957,
          0.13553199999999999,
          0.023763300000000005,
          0.7177164730406796
        ],
        "metallicFactor": 0.0,
        "roughnessFactor": 0.944301369906365
      }
    },
    {
      "doubleSided": true,
      "extensions": {
        "KHR_materials_specular": {
          "specularColorFactor": [
            1.0,
            1.0,
            1.0
          ],
          "specularFactor": 1.0
        }
      },
      "name": "Base",
      "pbrMetallicRoughness": {
        "baseColorFactor": [
          0.0,
          0.0,
          0.0,
          1.0
        ],
        "metallicFactor": 0.0,
        "roughnessFactor": 0.12647657592861233
      }
    }
  ],
  "meshes": [
    {
      "name": "energy _Gew_0",
      "primitives": [
        {
          "attributes": {
            "NORMAL": 1,
            "POSITION": 0,
            "TEXCOORD_0": 2
          },
          "indices": 3,
          "material": 0,
          "mode": 4
        }
      ]
    },
    {
      "name": "energy _Base_0",
      "primitives": [
        {
          "attributes": {
            "NORMAL": 5,
            "POSITION": 4,
            "TEXCOORD_0": 6
          },
          "indices": 7,
          "material": 1,
          "mode": 4
        }
      ]
    }
  ],
  "nodes": [
    {
      "children": [
        1
      ],
      "matrix": [
        1.0,
        0.0,
        0.0,
        0.0,
        0.0,
        2.220446049250313e-16,
        -1.0,
        0.0,
        0.0,
        1.0,
        2.220446049250313e-16,
        0.0,
        0.0,
        0.0,
        0.0,
        1.0
      ],
      "name": "Sketchfab_model"
    },
    {
      "children": [
        2
      ],
      "matrix": [
        0.009999999776482582,
        0.0,
        0.0,
        0.0,
        0.0,
        0.0,
        0.009999999776482582,
        0.0,
        0.0,
        -0.009999999776482582,
        0.0,
        0.0,
        0.0,
        0.0,
        0.0,
        1.0
      ],
      "name": "63806df4ecfe4952944ee07afc9666ab.fbx"
    },
    {
      "children": [
        3,
        6
      ],
      "name": "RootNode"
    },
    {
      "children": [
        4,
        5
      ],
      "matrix": [
        100.0,
        0.0,
        0.0,
        0.0,
        0.0,
        -1.629206793918314e-05,
        -99.99999999999868,
        0.0,
        0.0,
        99.99999999999868,
        -1.629206793918314e-05,
        0.0,
        0.0,
        0.0,
        0.0,
        1.0
      ],
      "name": "energy "
    },
    {
      "mesh": 0,
      "name": "energy _Gew_0"
    },
    {
      "mesh": 1,
      "name": "energy _Base_0"
    },
    {
      "children": [
        7
      ],
      "matrix": [
        100.0,
        0.0,
        0.0,
        0.0,
        0.0,
        99.99999999999972,
        -7.5497901264043296e-06,
        0.0,
        0.0,
        7.5497901264043296e-06,
        99.99999999999972,
        0.0,
        -256.59930419921875,
        136.80018615722656,
        -112.9919662475586,
        1.0
      ],
      "name": "Point"
    },
    {
      "children": [
        8
      ],
      "matrix": [
        1.0,
        0.0,
        0.0,
        0.0,
        0.0,
        2.220446049250313e-16,
        1.0,
        0.0,
        0.0,
        -1.0,
        2.220446049250313e-16,
        0.0,
        0.0,
        0.0,
        0.0,
        1.0
      ],
      "name": "Object_7"
    },
    {
      "name": "Object_8"
    }
  ],
  "scene": 0,
  "scenes": [
    {
      "name": "Sketchfab_Scene",
      "nodes": [
        0
      ]
    }
  ]
}
