{
  "accessors": [
    {
      "bufferView": 2,
      "componentType": 5126,
      "count": 4588,
      "max": [
        0.6386759877204895,
        0.05393210053443909,
        0.5526739954948425
      ],
      "min": [
        -0.7293919920921326,
        -0.35133400559425354,
        -0.5757369995117188
      ],
      "type": "VEC3"
    },
    {
      "bufferView": 2,
      "byteOffset": 55056,
      "componentType": 5126,
      "count": 4588,
      "max": [
        1.0,
        1.0,
        1.0
      ],
      "min": [
        -1.0,
        -1.0,
        -1.0
      ],
      "type": "VEC3"
    },
    {
      "bufferView": 3,
      "componentType": 5126,
      "count": 4588,
      "max": [
        1.0,
        0.9999999403953552,
        0.9999849796295166,
        1.0
      ],
      "min": [
        -1.0,
        -0.9999998211860657,
        -0.9999992251396179,
        -1.0
      ],
      "type": "VEC4"
    },
    {
      "bufferView": 1,
      "componentType": 5126,
      "count": 4588,
      "max": [
        0.8680909872055054,
        0.9622570276260376
      ],
      "min": [
        0.02500000037252903,
        0.02500000037252903
      ],
      "type": "VEC2"
    },
    {
      "bufferView": 0,
      "componentType": 5125,
      "count": 20046,
      "type": "SCALAR"
    },
    {
      "bufferView": 2,
      "byteOffset": 110112,
      "componentType": 5126,
      "count": 9495,
      "max": [
        0.714788019657135,
        0.06116680055856705,
        0.48617100715637207
      ],
      "min": [
        -0.6709010004997253,
        -0.14250299334526062,
        0.18454700708389282
      ],
      "type": "VEC3"
    },
    {
      "bufferView": 2,
      "byteOffset": 224052,
      "componentType": 5126,
      "count": 9495,
      "max": [
        1.0,
        1.0,
        1.0
      ],
      "min": [
        -1.0,
        -1.0,
        -1.0
      ],
      "type": "VEC3"
    },
    {
      "bufferView": 3,
      "byteOffset": 73408,
      "componentType": 5126,
      "count": 9495,
      "max": [
        1.0,
        1.0,
        1.0,
        1.0
      ],
      "min": [
        -0.9996640086174011,
        -1.0,
        -1.0,
        -1.0
      ],
      "type": "VEC4"
    },
    {
      "bufferView": 1,
      "byteOffset": 36704,
      "componentType": 5126,
      "count": 9495,
      "max": [
        0.4122779965400696,
        0.7189080119132996
      ],
      "min": [
        0.02500000037252903,
        0.028889799490571022
      ],
      "type": "VEC2"
    },
    {
      "bufferView": 0,
      "byteOffset": 80184,
      "componentType": 5125,
      "count": 50568,
      "type": "SCALAR"
    },
    {
      "bufferView": 2,
      "byteOffset": 337992,
      "componentType": 5126,
      "count": 6057,
      "max": [
        0.7211229801177979,
        0.36320701241493225,
        0.5727880001068115
      ],
      "min": [
        -0.6433370113372803,
        -0.36518600583076477,
        -0.5527859926223755
      ],
      "type": "VEC3"
    },
    {
      "bufferView": 2,
      "byteOffset": 410676,
      "componentType": 5126,
      "count": 6057,
      "max": [
        0.999999463558197,
        0.9999133348464966,
        1.0
      ],
      "min": [
        -0.9999106526374817,
        -0.9999992251396179,
        -1.0
      ],
      "type": "VEC3"
    },
    {
      "bufferView": 3,
      "byteOffset": 225328,
      "componentType": 5126,
      "count": 6057,
      "max": [
        0.9999840259552002,
        0.9999933242797852,
        1.0,
        1.0
      ],
      "min": [
        -0.9997991323471069,
        -0.9999933838844299,
        -1.0,
        1.0
      ],
      "type": "VEC4"
    },
    {
      "bufferView": 1,
      "byteOffset": 112664,
      "componentType": 5126,
      "count": 6057,
      "max": [
        0.9421889781951904,
        0.9750000238418579
      ],
      "min": [
        0.028770100325345993,
        0.028770100325345993
      ],
      "type": "VEC2"
    },
    {
      "bufferView": 0,
      "byteOffset": 282456,
      "componentType": 5125,
      "count": 33264,
      "type": "SCALAR"
    }
  ],
  "asset": {
    "extras": {
      "author": "hoschu (https://sketchfab.com/hoschu)",
      "license": "CC-BY-NC-4.0 (http://creativecommons.org/licenses/by-nc/4.0/)",
      "source": "https://sketchfab.com/3d-models/spinds-83e88175a01c492d9fbc2639c75138a8",
      "title": "Spinds"
    },
    "generator": "Sketchfab-12.67.0",
    "version": "2.0"
  },
  "bufferViews": [
    {
      "buffer": 0,
      "byteLength": 415512,
      "name": "floatBufferViews",
      "target": 34963
    },
    {
      "buffer": 0,
      "byteLength": 161120,
      "byteOffset": 415512,
      "byteStride": 8,
      "name": "floatBufferViews",
      "target": 34962
    },
    {
      "buffer": 0,
      "byteLength": 483360,
      "byteOffset": 576632,
      "byteStride": 12,
      "name": "floatBufferViews",
      "target": 34962
    },
    {
      "buffer": 0,
      "byteLength": 322240,
      "byteOffset": 1059992,
      "byteStride": 16,
      "name": "floatBufferViews",
      "target": 34962
    }
  ],
  "buffers": [
    {
      "byteLength": 1382232,
      "uri": "scene.bin"
    }
  ],
  "images": [
    {
      "uri": "textures/Metall_0321_baseColor.png"
    },
    {
      "uri": "textures/Metall_0321_normal.png"
    }
  ],
  "materials": [
    {
      "doubleSided": true,
      "name": "Metall_0321",
      "normalTexture": {
        "index": 1
      },
      "pbrMetallicRoughness": {
        "baseColorTexture": {
          "index": 0
        },
        "metallicFactor": 0.0,
        "roughnessFactor": 0.6
      }
    },
    {
      "doubleSided": true,
      "name": "Metall_0322",
      "normalTexture": {
        "index": 1
      },
      "pbrMetallicRoughness": {
        "baseColorTexture": {
          "index": 0
        },
        "metallicFactor": 0.0,
        "roughnessFactor": 0.6
      }
    },
    {
      "doubleSided": true,
      "name": "Rubber",
      "normalTexture": {
        "index": 1
      },
      "pbrMetallicRoughness": {
        "baseColorTexture": {
          "index": 0
        },
        "metallicFactor": 0.0,
        "roughnessFactor": 0.6
      }
    }
  ],
  "meshes": [
    {
      "name": "Object_0",
      "primitives": [
        {
          "attributes": {
            "NORMAL": 1,
            "POSITION": 0,
            "TANGENT": 2,
            "TEXCOORD_0": 3
          },
          "indices": 4,
          "material": 0,
          "mode": 4
        }
      ]
    },
    {
      "name": "Object_1",
      "primitives": [
        {
          "attributes": {
            "NORMAL": 6,
            "POSITION": 5,
            "TANGENT": 7,
            "TEXCOORD_0": 8
          },
          "indices": 9,
          "material": 1,
          "mode": 4
        }
      ]
    },
    {
      "name": "Object_2",
      "primitives": [
        {
          "attributes": {
            "NORMAL": 11,
            "POSITION": 10,
            "TANGENT": 12,
            "TEXCOORD_0": 13
          },
          "indices": 14,
          "material": 2,
          "mode": 4
        }
      ]
    }
  ],
  "nodes": [
    {
      "children": [
        1
      ],
      "matrix": [
        1.0,
        0.0,
        0.0,
        0.0,
        0.0,
        2.220446049250313e-16,
        -1.0,
        0.0,
        0.0,
        1.0,
        2.220446049250313e-16,
        0.0,
        0.0,
        0.0,
        0.0,
        1.0
      ],
      "name": "Sketchfab_model"
    },
    {
      "children": [
        2,
        3,
        4
      ],
      "name": "Spinds.obj.cleaner.gles"
    },
    {
      "mesh": 0,
      "name": "Object_2"
    },
    {
      "mesh": 1,
      "name": "Object_3"
    },
    {
      "mesh": 2,
      "name": "Object_4"
    }
  ],
  "samplers": [
    {
      "magFilter": 9729,
      "minFilter": 9987,
      "wrapS": 10497,
      "wrapT": 10497
    }
  ],
  "scene": 0,
  "scenes": [
    {
      "name": "Sketchfab_Scene",
      "nodes": [
        0
      ]
    }
  ],
  "textures": [
    {
      "sampler": 0,
      "source": 0
    },
    {
      "sampler": 0,
      "source": 1
    }
  ]
}
