{
  "accessors": [
    {
      "bufferView": 2,
      "componentType": 5126,
      "count": 65532,
      "max": [
        0.2197524607181549,
        0.3000146448612213,
        0.16140924394130707
      ],
      "min": [
        -0.21964456140995026,
        0.0,
        -0.15929757058620453
      ],
      "type": "VEC3"
    },
    {
      "bufferView": 2,
      "byteOffset": 786384,
      "componentType": 5126,
      "count": 65532,
      "max": [
        0.9999996423721313,
        1.0,
        1.0
      ],
      "min": [
        -0.9999979734420776,
        -1.0,
        -1.0
      ],
      "type": "VEC3"
    },
    {
      "bufferView": 3,
      "componentType": 5126,
      "count": 65532,
      "max": [
        0.9999987483024597,
        0.9999971389770508,
        0.9999990463256836,
        1.0
      ],
      "min": [
        -0.9999994039535522,
        -0.9999943375587463,
        -0.9999987483024597,
        -1.0
      ],
      "type": "VEC4"
    },
    {
      "bufferView": 1,
      "componentType": 5126,
      "count": 65532,
      "max": [
        0.9999679923057556,
        0.9994440078735352
      ],
      "min": [
        3.400000059627928e-05,
        0.0006589889526367188
      ],
      "type": "VEC2"
    },
    {
      "bufferView": 1,
      "byteOffset": 524256,
      "componentType": 5126,
      "count": 65532,
      "max": [
        0.9999679923057556,
        0.9994440078735352
      ],
      "min": [
        3.400000059627928e-05,
        0.0006589889526367188
      ],
      "type": "VEC2"
    },
    {
      "bufferView": 1,
      "byteOffset": 1048512,
      "componentType": 5126,
      "count": 65532,
      "max": [
        0.9999679923057556,
        0.9994440078735352
      ],
      "min": [
        3.400000059627928e-05,
        0.0006589889526367188
      ],
      "type": "VEC2"
    },
    {
      "bufferView": 1,
      "byteOffset": 1572768,
      "componentType": 5126,
      "count": 65532,
      "max": [
        0.9999679923057556,
        0.9994440078735352
      ],
      "min": [
        3.400000059627928e-05,
        0.0006589889526367188
      ],
      "type": "VEC2"
    },
    {
      "bufferView": 0,
      "componentType": 5125,
      "count": 350118,
      "type": "SCALAR"
    },
    {
      "bufferView": 2,
      "byteOffset": 1572768,
      "componentType": 5126,
      "count": 65532,
      "max": [
        0.04861665517091751,
        0.3000146448612213,
        0.1602434366941452
      ],
      "min": [
        -0.21982963383197784,
        0.0,
        -0.15929272770881653
      ],
      "type": "VEC3"
    },
    {
      "bufferView": 2,
      "byteOffset": 2359152,
      "componentType": 5126,
      "count": 65532,
      "max": [
        0.9999891519546509,
        1.0,
        0.9999998807907104
      ],
      "min": [
        -0.9999996423721313,
        -1.0,
        -1.0
      ],
      "type": "VEC3"
    },
    {
      "bufferView": 3,
      "byteOffset": 1048512,
      "componentType": 5126,
      "count": 65532,
      "max": [
        0.9999954700469971,
        0.9999980926513672,
        0.9999985694885254,
        1.0
      ],
      "min": [
        -0.9999925494194031,
        -0.999997615814209,
        -0.9999954104423523,
        -1.0
      ],
      "type": "VEC4"
    },
    {
      "bufferView": 1,
      "byteOffset": 2097024,
      "componentType": 5126,
      "count": 65532,
      "max": [
        1.0,
        0.9999740123748779
      ],
      "min": [
        1.9999999949504854e-06,
        0.0005530118942260742
      ],
      "type": "VEC2"
    },
    {
      "bufferView": 1,
      "byteOffset": 2621280,
      "componentType": 5126,
      "count": 65532,
      "max": [
        1.0,
        0.9999740123748779
      ],
      "min": [
        1.9999999949504854e-06,
        0.0005530118942260742
      ],
      "type": "VEC2"
    },
    {
      "bufferView": 1,
      "byteOffset": 3145536,
      "componentType": 5126,
      "count": 65532,
      "max": [
        1.0,
        0.9999740123748779
      ],
      "min": [
        1.9999999949504854e-06,
        0.0005530118942260742
      ],
      "type": "VEC2"
    },
    {
      "bufferView": 1,
      "byteOffset": 3669792,
      "componentType": 5126,
      "count": 65532,
      "max": [
        1.0,
        0.9999740123748779
      ],
      "min": [
        1.9999999949504854e-06,
        0.0005530118942260742
      ],
      "type": "VEC2"
    },
    {
      "bufferView": 0,
      "byteOffset": 1400472,
      "componentType": 5125,
      "count": 343701,
      "type": "SCALAR"
    },
    {
      "bufferView": 2,
      "byteOffset": 3145536,
      "componentType": 5126,
      "count": 65532,
      "max": [
        0.21247762441635132,
        0.2946038246154785,
        0.14498405158519745
      ],
      "min": [
        -0.052068088203668594,
        9.956955909729004e-05,
        -0.15929272770881653
      ],
      "type": "VEC3"
    },
    {
      "bufferView": 2,
      "byteOffset": 3931920,
      "componentType": 5126,
      "count": 65532,
      "max": [
        1.0,
        1.0,
        0.9999996423721313
      ],
      "min": [
        -0.9999978542327881,
        -1.0,
        -1.0
      ],
      "type": "VEC3"
    },
    {
      "bufferView": 3,
      "byteOffset": 2097024,
      "componentType": 5126,
      "count": 65532,
      "max": [
        0.9999992251396179,
        0.9999997019767761,
        0.9999995231628418,
        1.0
      ],
      "min": [
        -0.9999970197677612,
        -0.9999933838844299,
        -0.9999991059303284,
        -1.0
      ],
      "type": "VEC4"
    },
    {
      "bufferView": 1,
      "byteOffset": 4194048,
      "componentType": 5126,
      "count": 65532,
      "max": [
        0.9999780058860779,
        0.999908983707428
      ],
      "min": [
        2.4000000848900527e-05,
        0.0007179975509643555
      ],
      "type": "VEC2"
    },
    {
      "bufferView": 1,
      "byteOffset": 4718304,
      "componentType": 5126,
      "count": 65532,
      "max": [
        0.9999780058860779,
        0.999908983707428
      ],
      "min": [
        2.4000000848900527e-05,
        0.0007179975509643555
      ],
      "type": "VEC2"
    },
    {
      "bufferView": 1,
      "byteOffset": 5242560,
      "componentType": 5126,
      "count": 65532,
      "max": [
        0.9999780058860779,
        0.999908983707428
      ],
      "min": [
        2.4000000848900527e-05,
        0.0007179975509643555
      ],
      "type": "VEC2"
    },
    {
      "bufferView": 1,
      "byteOffset": 5766816,
      "componentType": 5126,
      "count": 65532,
      "max": [
        0.9999780058860779,
        0.999908983707428
      ],
      "min": [
        2.4000000848900527e-05,
        0.0007179975509643555
      ],
      "type": "VEC2"
    },
    {
      "bufferView": 0,
      "byteOffset": 2775276,
      "componentType": 5125,
      "count": 350376,
      "type": "SCALAR"
    },
    {
      "bufferView": 2,
      "byteOffset": 4718304,
      "componentType": 5126,
      "count": 9907,
      "max": [
        0.2164197862148285,
        0.2944270670413971,
        0.16026261448860168
      ],
      "min": [
        0.1758154034614563,
        9.725987911224365e-05,
        -0.15915827453136444
      ],
      "type": "VEC3"
    },
    {
      "bufferView": 2,
      "byteOffset": 4837188,
      "componentType": 5126,
      "count": 9907,
      "max": [
        0.9999955892562866,
        0.9999969005584717,
        0.9999853372573853
      ],
      "min": [
        -0.9999415278434753,
        -0.9999998807907104,
        -0.9999996423721313
      ],
      "type": "VEC3"
    },
    {
      "bufferView": 3,
      "byteOffset": 3145536,
      "componentType": 5126,
      "count": 9907,
      "max": [
        0.9999683499336243,
        0.9999088644981384,
        0.9999161958694458,
        1.0
      ],
      "min": [
        -0.9999927878379822,
        -0.9999684691429138,
        -0.9999858140945435,
        -1.0
      ],
      "type": "VEC4"
    },
    {
      "bufferView": 1,
      "byteOffset": 6291072,
      "componentType": 5126,
      "count": 9907,
      "max": [
        0.9999079704284668,
        0.998429000377655
      ],
      "min": [
        5.700000110664405e-05,
        0.0016450285911560059
      ],
      "type": "VEC2"
    },
    {
      "bufferView": 1,
      "byteOffset": 6370328,
      "componentType": 5126,
      "count": 9907,
      "max": [
        0.9999079704284668,
        0.998429000377655
      ],
      "min": [
        5.700000110664405e-05,
        0.0016450285911560059
      ],
      "type": "VEC2"
    },
    {
      "bufferView": 1,
      "byteOffset": 6449584,
      "componentType": 5126,
      "count": 9907,
      "max": [
        0.9999079704284668,
        0.998429000377655
      ],
      "min": [
        5.700000110664405e-05,
        0.0016450285911560059
      ],
      "type": "VEC2"
    },
    {
      "bufferView": 1,
      "byteOffset": 6528840,
      "componentType": 5126,
      "count": 9907,
      "max": [
        0.9999079704284668,
        0.998429000377655
      ],
      "min": [
        5.700000110664405e-05,
        0.0016450285911560059
      ],
      "type": "VEC2"
    },
    {
      "bufferView": 0,
      "byteOffset": 4176780,
      "componentType": 5125,
      "count": 46731,
      "type": "SCALAR"
    }
  ],
  "asset": {
    "extras": {
      "author": "ULT7R4 (https://sketchfab.com/ULT7R4)",
      "license": "CC-BY-4.0 (http://creativecommons.org/licenses/by/4.0/)",
      "source": "https://sketchfab.com/3d-models/parapsychology-psi-event-generator-d40b69daaf8445a58cd02455058bf277",
      "title": "Parapsychology PSI Event Generator"
    },
    "generator": "Sketchfab-0.13.0",
    "version": "2.0"
  },
  "bufferViews": [
    {
      "buffer": 0,
      "byteLength": 4363704,
      "name": "floatBufferViews",
      "target": 34963
    },
    {
      "buffer": 0,
      "byteLength": 6608096,
      "byteOffset": 4363704,
      "byteStride": 8,
      "name": "floatBufferViews",
      "target": 34962
    },
    {
      "buffer": 0,
      "byteLength": 4956072,
      "byteOffset": 10971800,
      "byteStride": 12,
      "name": "floatBufferViews",
      "target": 34962
    },
    {
      "buffer": 0,
      "byteLength": 3304048,
      "byteOffset": 15927872,
      "byteStride": 16,
      "name": "floatBufferViews",
      "target": 34962
    }
  ],
  "buffers": [
    {
      "byteLength": 19231920,
      "uri": "scene.bin"
    }
  ],
  "images": [
    {
      "uri": "textures/Material_0_baseColor.jpeg"
    },
    {
      "uri": "textures/Material_0_metallicRoughness.png"
    },
    {
      "uri": "textures/Material_0_normal.jpeg"
    }
  ],
  "materials": [
    {
      "doubleSided": true,
      "name": "Material_0",
      "normalTexture": {
        "index": 2,
        "texCoord": 2
      },
      "pbrMetallicRoughness": {
        "baseColorTexture": {
          "index": 0
        },
        "metallicRoughnessTexture": {
          "index": 1,
          "texCoord": 1
        }
      }
    }
  ],
  "meshes": [
    {
      "name": "Object_0",
      "primitives": [
        {
          "attributes": {
            "NORMAL": 1,
            "POSITION": 0,
            "TANGENT": 2,
            "TEXCOORD_0": 3,
            "TEXCOORD_1": 4,
            "TEXCOORD_2": 5,
            "TEXCOORD_3": 6
          },
          "indices": 7,
          "material": 0,
          "mode": 4
        }
      ]
    },
    {
      "name": "Object_1",
      "primitives": [
        {
          "attributes": {
            "NORMAL": 9,
            "POSITION": 8,
            "TANGENT": 10,
            "TEXCOORD_0": 11,
            "TEXCOORD_1": 12,
            "TEXCOORD_2": 13,
            "TEXCOORD_3": 14
          },
          "indices": 15,
          "material": 0,
          "mode": 4
        }
      ]
    },
    {
      "name": "Object_2",
      "primitives": [
        {
          "attributes": {
            "NORMAL": 17,
            "POSITION": 16,
            "TANGENT": 18,
            "TEXCOORD_0": 19,
            "TEXCOORD_1": 20,
            "TEXCOORD_2": 21,
            "TEXCOORD_3": 22
          },
          "indices": 23,
          "material": 0,
          "mode": 4
        }
      ]
    },
    {
      "name": "Object_3",
      "primitives": [
        {
          "attributes": {
            "NORMAL": 25,
            "POSITION": 24,
            "TANGENT": 26,
            "TEXCOORD_0": 27,
            "TEXCOORD_1": 28,
            "TEXCOORD_2": 29,
            "TEXCOORD_3": 30
          },
          "indices": 31,
          "material": 0,
          "mode": 4
        }
      ]
    }
  ],
  "nodes": [
    {
      "children": [
        1
      ],
      "matrix": [
        1.0,
        0.0,
        0.0,
        0.0,
        0.0,
        2.220446049250313e-16,
        -1.0,
        0.0,
        0.0,
        1.0,
        2.220446049250313e-16,
        0.0,
        0.0,
        0.0,
        0.0,
        1.0
      ],
      "name": "Sketchfab_model"
    },
    {
      "children": [
        2
      ],
      "name": "root"
    },
    {
      "children": [
        3
      ],
      "matrix": [
        1.0,
        0.0,
        0.0,
        0.0,
        0.0,
        2.220446049250313e-16,
        1.0,
        0.0,
        0.0,
        -1.0,
        2.220446049250313e-16,
        0.0,
        0.0,
        0.0,
        0.0,
        1.0
      ],
      "name": "GLTF_SceneRootNode"
    },
    {
      "children": [
        4,
        5,
        6,
        7
      ],
      "name": "Mesh_0_0"
    },
    {
      "mesh": 0,
      "name": "Object_4"
    },
    {
      "mesh": 1,
      "name": "Object_5"
    },
    {
      "mesh": 2,
      "name": "Object_6"
    },
    {
      "mesh": 3,
      "name": "Object_7"
    }
  ],
  "samplers": [
    {
      "magFilter": 9729,
      "minFilter": 9987,
      "wrapS": 10497,
      "wrapT": 10497
    }
  ],
  "scene": 0,
  "scenes": [
    {
      "name": "Sketchfab_Scene",
      "nodes": [
        0
      ]
    }
  ],
  "textures": [
    {
      "sampler": 0,
      "source": 0
    },
    {
      "sampler": 0,
      "source": 1
    },
    {
      "sampler": 0,
      "source": 2
    }
  ]
}
